<?xml version="1.0" encoding="utf-8"?>
<!-- Generator: Adobe Illustrator 16.2.1, SVG Export Plug-In . SVG Version: 6.00 Build 0)  -->
<!DOCTYPE svg PUBLIC "-//W3C//DTD SVG 1.1//EN" "http://www.w3.org/Graphics/SVG/1.1/DTD/svg11.dtd">
<svg version="1.1" id="Layer_1" xmlns="http://www.w3.org/2000/svg" xmlns:xlink="http://www.w3.org/1999/xlink" x="0px" y="0px"
	 width="215.989px" height="212.743px" viewBox="0 0 215.989 212.743" enable-background="new 0 0 215.989 212.743"
	 xml:space="preserve">
<g>
	<defs>
		<path id="SVGID_3_" d="M203.847,171.352c0,16.666-13.511,30.173-30.175,30.173H42.921c-16.664,0-30.174-13.507-30.174-30.173
			V40.601c0-16.666,13.51-30.173,30.174-30.173h130.751c16.664,0,30.175,13.507,30.175,30.173V171.352z"/>
	</defs>
	<clipPath id="SVGID_2_">
		<use xlink:href="#SVGID_3_"  overflow="visible"/>
	</clipPath>

		<rect x="12.748" y="105.976" display="none" opacity="0.15" clip-path="url(#SVGID_2_)" fill="#095b4b" stroke="#095b4b" stroke-width="4" stroke-miterlimit="10" width="191.1" height="95.549"/>
	<use xlink:href="#SVGID_3_"  overflow="visible" fill="none" stroke="#095b4b" stroke-width="4" stroke-miterlimit="10"/>
</g>
<path class="feature-icon-svg" fill="#095b4b" d="M116.337,64.641h9.384c0.345,1.987,1.405,3.732,2.914,4.949l-4.855,8.755
	c-0.861-0.31-1.784-0.489-2.752-0.489c-0.961,0-1.877,0.178-2.736,0.483l-4.861-8.754C114.934,68.368,115.993,66.628,116.337,64.641
	z M112.988,87.433h-9.382c-0.353,2.015-1.439,3.777-2.981,4.997l4.961,8.945c0.849-0.301,1.759-0.473,2.711-0.473
	c0.951,0,1.862,0.172,2.711,0.473l4.96-8.945C114.425,91.21,113.34,89.447,112.988,87.433z M95.564,77.855
	c0.961,0,1.879,0.178,2.737,0.483l4.862-8.754c-1.504-1.217-2.562-2.957-2.908-4.944h-9.384c-0.345,1.987-1.405,3.732-2.912,4.949
	l4.852,8.755C93.674,78.035,94.599,77.855,95.564,77.855z M103.135,102.746l-4.978-8.979c-0.815,0.276-1.686,0.431-2.593,0.431
	c-0.917,0-1.796-0.157-2.619-0.438l-4.98,8.968c1.505,1.217,2.562,2.959,2.907,4.943h9.384
	C100.599,105.697,101.645,103.963,103.135,102.746z M108.296,117.245c-0.921,0-1.805-0.163-2.632-0.444l-4.973,8.969
	c1.509,1.217,2.568,2.959,2.915,4.949h9.382c0.347-1.99,1.406-3.732,2.913-4.949l-4.972-8.969
	C110.1,117.082,109.218,117.245,108.296,117.245z M131.091,70.95l-4.867,8.777c1.473,1.217,2.505,2.938,2.845,4.897h9.383
	c0.344-1.979,1.396-3.717,2.893-4.934l-4.889-8.749c-0.846,0.298-1.75,0.469-2.696,0.469
	C132.826,71.411,131.928,71.243,131.091,70.95z M121.028,94.197c-0.905,0-1.776-0.154-2.59-0.431l-4.979,8.979
	c1.49,1.217,2.535,2.951,2.879,4.924h9.384c0.345-1.984,1.403-3.727,2.907-4.943l-4.981-8.968
	C122.825,94.04,121.946,94.197,121.028,94.197z M112.988,133.523h-9.382c-0.347,1.992-1.413,3.738-2.925,4.957l4.956,8.969
	c0.834-0.287,1.726-0.453,2.66-0.453c0.932,0,1.824,0.166,2.66,0.453l4.956-8.969C114.401,137.262,113.334,135.516,112.988,133.523z
	 M125.721,110.478h-9.384c-0.347,2.001-1.422,3.755-2.947,4.975l4.967,8.954c0.838-0.289,1.735-0.458,2.67-0.458
	c0.935,0,1.826,0.169,2.66,0.455l4.955-8.971C127.132,114.216,126.066,112.471,125.721,110.478z M138.453,87.433h-9.383
	c-0.348,2.007-1.428,3.76-2.958,4.979l4.971,8.951c0.839-0.292,1.741-0.461,2.678-0.461c0.933,0,1.825,0.166,2.661,0.453
	l4.953-8.969C139.864,91.17,138.8,89.422,138.453,87.433z M149.943,102.974c0.716,1.9,1.112,3.954,1.112,6.099
	c0,8.355-5.955,15.348-13.846,16.953c0.72,1.896,1.114,3.948,1.114,6.096c0,8.355-5.956,15.345-13.845,16.949
	c0.717,1.897,1.112,3.952,1.112,6.099c0,9.533-7.757,17.293-17.294,17.293c-9.535,0-17.294-7.76-17.294-17.293
	c0-2.146,0.396-4.201,1.112-6.099c-7.889-1.604-13.846-8.594-13.846-16.949c0-2.147,0.395-4.199,1.115-6.096
	c-7.889-1.605-13.845-8.598-13.845-16.953c0-2.145,0.396-4.198,1.112-6.099c-7.89-1.599-13.845-8.591-13.845-16.946
	c0-8.32,5.91-15.293,13.756-16.929c-0.66-1.83-1.022-3.803-1.022-5.86c0-9.538,7.757-17.295,17.292-17.295
	c5.033,0,9.571,2.164,12.733,5.604c3.165-3.439,7.699-5.604,12.732-5.604s9.57,2.164,12.731,5.604
	c3.164-3.439,7.701-5.604,12.733-5.604c9.537,0,17.294,7.757,17.294,17.295c0,2.058-0.361,4.03-1.024,5.86
	c7.846,1.636,13.758,8.608,13.758,16.929C163.789,94.383,157.832,101.375,149.943,102.974z M154.664,86.027
	c0-4.504-3.664-8.172-8.17-8.172c-0.946,0-1.851,0.172-2.697,0.467l-4.886-8.746c1.841-1.501,3.021-3.783,3.021-6.338
	c0-4.505-3.665-8.17-8.17-8.17c-4.024,0-7.372,2.929-8.04,6.768h-9.384c-0.667-3.839-4.015-6.768-8.041-6.768
	c-4.025,0-7.373,2.929-8.041,6.768h-9.384c-0.667-3.839-4.015-6.768-8.041-6.768c-4.505,0-8.17,3.665-8.17,8.17
	c0,2.555,1.181,4.837,3.023,6.338l-4.889,8.746c-0.845-0.295-1.75-0.467-2.693-0.467c-4.507,0-8.172,3.668-8.172,8.172
	c0,4.505,3.665,8.17,8.172,8.17c0.931,0,1.822-0.163,2.658-0.453l4.954,8.969c-1.858,1.5-3.053,3.791-3.053,6.359
	c0,4.506,3.665,8.173,8.17,8.173c0.933,0,1.826-0.166,2.662-0.455l4.956,8.971c-1.86,1.498-3.054,3.792-3.054,6.36
	c0,4.505,3.667,8.173,8.17,8.173c0.933,0,1.824-0.169,2.66-0.456l4.956,8.969c-1.858,1.5-3.053,3.794-3.053,6.362
	c0,4.5,3.665,8.167,8.17,8.167c4.506,0,8.17-3.667,8.17-8.167c0-2.568-1.193-4.862-3.053-6.362l4.954-8.969
	c0.837,0.287,1.729,0.456,2.66,0.456c4.506,0,8.172-3.668,8.172-8.173c0-2.568-1.195-4.862-3.054-6.36l4.955-8.971
	c0.835,0.289,1.728,0.455,2.66,0.455c4.505,0,8.17-3.667,8.17-8.173c0-2.568-1.193-4.859-3.053-6.359l4.956-8.969
	c0.836,0.29,1.728,0.453,2.66,0.453C151,94.197,154.664,90.532,154.664,86.027z M78.141,84.625h9.382
	c0.341-1.959,1.374-3.681,2.847-4.897l-4.865-8.777c-0.839,0.293-1.737,0.461-2.674,0.461c-0.946,0-1.85-0.171-2.695-0.469
	l-4.888,8.749C76.744,80.908,77.796,82.646,78.141,84.625z M103.606,84.625h9.382c0.342-1.965,1.379-3.691,2.858-4.908l-4.872-8.77
	c-0.839,0.296-1.738,0.464-2.678,0.464c-0.937,0-1.837-0.168-2.678-0.464l-4.871,8.77C102.226,80.934,103.263,82.66,103.606,84.625z
	 M98.237,124.406l4.965-8.954c-1.524-1.22-2.599-2.974-2.947-4.975h-9.384c-0.345,1.993-1.41,3.738-2.922,4.955l4.956,8.971
	c0.834-0.286,1.726-0.455,2.658-0.455C96.5,123.948,97.396,124.117,98.237,124.406z M85.51,101.363l4.972-8.951
	c-1.53-1.22-2.608-2.973-2.958-4.979h-9.382c-0.348,1.989-1.412,3.737-2.924,4.954l4.956,8.969c0.837-0.287,1.726-0.453,2.658-0.453
	C83.771,100.902,84.669,101.071,85.51,101.363z"/>
</svg>
