<?xml version="1.0" encoding="utf-8"?>
<!-- Generator: Adobe Illustrator 16.2.1, SVG Export Plug-In . SVG Version: 6.00 Build 0)  -->
<!DOCTYPE svg PUBLIC "-//W3C//DTD SVG 1.1//EN" "http://www.w3.org/Graphics/SVG/1.1/DTD/svg11.dtd">
<svg version="1.1" id="Layer_1" xmlns="http://www.w3.org/2000/svg" xmlns:xlink="http://www.w3.org/1999/xlink" x="0px" y="0px"
	 width="155px" height="46.1px" viewBox="0 0 155 46.1" enable-background="new 0 0 155 46.1" xml:space="preserve">
<g>
	<path fill="#005b4b" d="M138.013,11.889h1.71c0.08-0.455,0.32-0.855,0.662-1.141l-0.895-1.62c-0.195,0.065-0.404,0.104-0.622,0.104
		c-0.219,0-0.429-0.039-0.624-0.106l-0.897,1.618C137.692,11.029,137.933,11.431,138.013,11.889z"/>
	<path fill="#005b4b" d="M136.131,10.306c0.225,0,0.441,0.042,0.642,0.114l0.895-1.613c-0.352-0.286-0.6-0.691-0.681-1.157h-1.71
		c-0.086,0.488-0.357,0.914-0.74,1.201c0.255,0.464,0.554,1.004,0.885,1.595C135.639,10.355,135.879,10.306,136.131,10.306z"/>
	<path fill="#005b4b" d="M139.723,12.55h-1.71c-0.085,0.486-0.352,0.905-0.729,1.193c0.314,0.551,0.627,1.101,0.934,1.635
		c0.204-0.074,0.422-0.117,0.651-0.117c0.219,0,0.429,0.039,0.626,0.107l0.919-1.653C140.056,13.427,139.805,13.018,139.723,12.55z"
		/>
	<path fill="#005b4b" d="M137.644,15.706c-0.341-0.595-0.657-1.146-0.95-1.658c-0.179,0.055-0.368,0.083-0.563,0.083
		c-0.212,0-0.416-0.034-0.606-0.1l-0.921,1.663c0.353,0.291,0.6,0.707,0.675,1.178h1.702
		C137.055,16.406,137.297,15.996,137.644,15.706z"/>
	<path fill="#005b4b" d="M138.868,19.088c-0.221,0-0.433-0.041-0.63-0.109l-0.912,1.66c0.356,0.284,0.605,0.693,0.688,1.159h1.71
		c0.081-0.463,0.331-0.871,0.683-1.157l-0.916-1.66C139.294,19.05,139.085,19.088,138.868,19.088z"/>
	<path fill="#005b4b" d="M143.717,9.124l-0.898,1.618c0.346,0.286,0.589,0.688,0.668,1.146h1.711
		c0.08-0.462,0.325-0.868,0.676-1.151l-0.901-1.613c-0.199,0.069-0.409,0.108-0.63,0.108C144.123,9.232,143.913,9.193,143.717,9.124
		z"/>
	<path fill="#005b4b" d="M141.605,14.131c-0.215,0-0.42-0.034-0.613-0.102l-0.922,1.66c0.358,0.289,0.608,0.709,0.683,1.183h1.703
		c0.074-0.467,0.316-0.878,0.665-1.168l-0.92-1.669C142.013,14.099,141.813,14.131,141.605,14.131z"/>
	<path fill="#005b4b" d="M140.066,8.809l0.892,1.613c0.202-0.074,0.419-0.116,0.646-0.116c0.224,0,0.438,0.042,0.638,0.113
		l0.896-1.612c-0.352-0.286-0.598-0.692-0.68-1.157h-1.711C140.668,8.116,140.42,8.523,140.066,8.809z"/>
	<path fill="#005b4b" d="M145.198,12.55h-1.711c-0.083,0.474-0.339,0.89-0.705,1.174l0.913,1.654
		c0.203-0.074,0.42-0.117,0.648-0.117c0.218,0,0.426,0.039,0.621,0.106l0.917-1.66C145.528,13.423,145.279,13.016,145.198,12.55z"/>
	<path fill="#005b4b" d="M150.642,12.219c0-1.778-1.311-3.252-3.017-3.515c0.18-0.426,0.28-0.894,0.28-1.385
		c0-1.962-1.598-3.562-3.562-3.562c-1.1,0-2.083,0.502-2.738,1.287c-0.654-0.785-1.639-1.287-2.737-1.287
		c-1.1,0-2.083,0.502-2.737,1.287c-0.654-0.785-1.638-1.287-2.738-1.287c-1.963,0-3.562,1.6-3.562,3.562
		c0,0.491,0.101,0.959,0.28,1.385c-1.706,0.263-3.017,1.736-3.017,3.515c0,1.788,1.325,3.267,3.042,3.521
		c-0.194,0.438-0.305,0.925-0.305,1.436c0,1.786,1.325,3.267,3.042,3.519c-0.195,0.44-0.305,0.926-0.305,1.436
		c0,1.788,1.324,3.266,3.041,3.52c-0.194,0.439-0.304,0.925-0.304,1.436c0,1.964,1.597,3.562,3.562,3.562s3.562-1.599,3.562-3.562
		c0-0.511-0.11-0.996-0.303-1.436c1.717-0.254,3.041-1.731,3.041-3.52c0-0.51-0.11-0.995-0.305-1.436
		c1.718-0.252,3.042-1.732,3.042-3.519c0-0.511-0.11-0.997-0.305-1.436C149.317,15.485,150.642,14.007,150.642,12.219z
		 M147.079,14.131c-0.217,0-0.425-0.037-0.621-0.104l-0.917,1.659c0.435,0.352,0.715,0.888,0.715,1.488
		c0,1.055-0.858,1.913-1.913,1.913c-0.218,0-0.426-0.038-0.622-0.107l-0.917,1.66c0.435,0.351,0.713,0.886,0.713,1.488
		c0,1.055-0.858,1.913-1.912,1.913c-0.219,0-0.426-0.04-0.621-0.105l-0.918,1.658c0.435,0.353,0.714,0.889,0.714,1.489
		c0,1.055-0.858,1.912-1.913,1.912c-1.054,0-1.913-0.857-1.913-1.912c0-0.601,0.279-1.137,0.714-1.489l-0.917-1.658
		c-0.195,0.065-0.404,0.105-0.621,0.105c-1.055,0-1.913-0.858-1.913-1.913c0-0.603,0.279-1.138,0.713-1.488l-0.917-1.66
		c-0.195,0.069-0.403,0.107-0.621,0.107c-1.055,0-1.911-0.858-1.911-1.913c0-0.601,0.278-1.137,0.712-1.488l-0.917-1.659
		c-0.196,0.066-0.404,0.104-0.622,0.104c-1.054,0-1.913-0.855-1.913-1.912c0-1.054,0.859-1.913,1.913-1.913
		c0.22,0,0.433,0.041,0.63,0.11l0.9-1.612c-0.43-0.353-0.705-0.885-0.705-1.484c0-1.055,0.856-1.913,1.911-1.913
		c0.942,0,1.726,0.687,1.883,1.583h1.71c0.157-0.896,0.94-1.583,1.882-1.583c0.942,0,1.725,0.687,1.881,1.583h1.711
		c0.157-0.896,0.94-1.583,1.883-1.583c1.055,0,1.913,0.858,1.913,1.913c0,0.6-0.277,1.132-0.707,1.484l0.9,1.612
		c0.198-0.069,0.409-0.11,0.629-0.11c1.055,0,1.913,0.859,1.913,1.913C148.992,13.275,148.134,14.131,147.079,14.131z"/>
	<path fill="#005b4b" d="M142.465,17.531h-1.72c-0.086,0.454-0.333,0.853-0.68,1.131l0.917,1.661
		c0.196-0.07,0.403-0.107,0.622-0.107c0.218,0,0.426,0.037,0.621,0.107l0.917-1.661C142.798,18.384,142.55,17.985,142.465,17.531z"
		/>
	<path fill="#005b4b" d="M139.723,22.459h-1.71c-0.082,0.466-0.329,0.873-0.684,1.158l0.917,1.659
		c0.195-0.066,0.403-0.104,0.621-0.104c0.218,0,0.427,0.038,0.622,0.104l0.916-1.659C140.054,23.332,139.804,22.925,139.723,22.459z
		"/>
	<path fill="#005b4b" d="M132.538,11.889h1.71c0.076-0.429,0.294-0.81,0.606-1.09c-0.373-0.669-0.671-1.21-0.906-1.648
		c-0.177,0.053-0.363,0.082-0.555,0.082c-0.221,0-0.432-0.039-0.629-0.108l-0.902,1.613
		C132.211,11.021,132.456,11.427,132.538,11.889z"/>
	<path fill="#005b4b" d="M134.028,15.373l0.918-1.654c-0.361-0.287-0.616-0.698-0.698-1.169h-1.71
		c-0.082,0.466-0.33,0.873-0.683,1.157l0.918,1.66c0.194-0.067,0.403-0.106,0.62-0.106C133.616,15.261,133.83,15.301,134.028,15.373
		z"/>
	<path fill="#005b4b" d="M136.747,20.321l0.914-1.665c-0.343-0.278-0.585-0.673-0.672-1.125h-1.718
		c-0.086,0.454-0.333,0.853-0.679,1.131l0.917,1.661c0.194-0.07,0.403-0.107,0.622-0.107
		C136.346,20.216,136.554,20.253,136.747,20.321z"/>
</g>
<path fill="#005b4b" d="M14.225,33.045l0.664,1.086c-0.391,0.364-0.862,0.652-1.416,0.86c-0.554,0.21-1.124,0.312-1.71,0.312
	c-1.022,0-1.808-0.286-2.356-0.856c-0.549-0.568-0.823-1.39-0.823-2.463v-7.915H7.025c-0.137,0-0.251-0.039-0.344-0.122
	c-0.095-0.08-0.142-0.206-0.142-0.376v-0.905l2.12-0.27L9.183,18.4c0.017-0.127,0.073-0.232,0.165-0.312
	c0.095-0.081,0.212-0.12,0.358-0.12h1.15v4.454h3.702v1.647h-3.702v7.76c0,0.548,0.132,0.953,0.395,1.216
	c0.264,0.263,0.604,0.395,1.021,0.395c0.239,0,0.444-0.032,0.619-0.097c0.176-0.064,0.327-0.134,0.453-0.211
	c0.129-0.074,0.238-0.146,0.327-0.211c0.089-0.062,0.167-0.094,0.235-0.094C14.026,32.827,14.132,32.898,14.225,33.045z
	 M25.548,31.703c-0.492,0.562-1.033,1.002-1.62,1.315c-0.588,0.315-1.214,0.473-1.876,0.473c-0.912,0-1.593-0.27-2.043-0.806
	c-0.452-0.535-0.676-1.292-0.676-2.271v-8.248H17.06v8.248c0,0.729,0.092,1.398,0.273,2.005c0.183,0.604,0.458,1.12,0.823,1.544
	c0.367,0.426,0.821,0.755,1.362,0.991c0.541,0.231,1.163,0.35,1.869,0.35c0.903,0,1.703-0.189,2.4-0.57
	c0.698-0.376,1.328-0.877,1.89-1.496l0.178,1.39c0.085,0.313,0.289,0.473,0.614,0.473h1.352V22.166h-2.273V31.703z M37.626,32.827
	c-0.066,0-0.146,0.032-0.235,0.094c-0.09,0.065-0.199,0.137-0.326,0.211c-0.129,0.077-0.28,0.146-0.454,0.211
	c-0.175,0.064-0.382,0.097-0.619,0.097c-0.418,0-0.758-0.132-1.022-0.395c-0.263-0.263-0.396-0.668-0.396-1.216v-7.76h3.703v-1.647
	h-3.703v-4.454h-1.149c-0.144,0-0.263,0.039-0.356,0.12c-0.095,0.08-0.149,0.186-0.167,0.312l-0.523,3.996l-2.12,0.27v0.905
	c0,0.17,0.047,0.296,0.141,0.376c0.093,0.083,0.208,0.122,0.343,0.122h1.56v7.915c0,1.073,0.274,1.895,0.823,2.463
	c0.548,0.57,1.334,0.856,2.354,0.856c0.588,0,1.157-0.103,1.711-0.312c0.553-0.208,1.026-0.496,1.418-0.86l-0.665-1.086
	C37.853,32.898,37.746,32.827,37.626,32.827z M52.045,25.873c0.287,0.823,0.429,1.741,0.429,2.753c0,1.021-0.142,1.941-0.429,2.759
	c-0.285,0.816-0.692,1.514-1.224,2.093c-0.534,0.577-1.179,1.024-1.94,1.333c-0.762,0.313-1.615,0.469-2.561,0.469
	c-0.945,0-1.798-0.155-2.56-0.469c-0.762-0.309-1.411-0.756-1.948-1.333c-0.535-0.579-0.949-1.276-1.238-2.093
	c-0.289-0.817-0.434-1.738-0.434-2.759c0-1.012,0.145-1.93,0.434-2.753c0.289-0.819,0.703-1.519,1.238-2.1
	c0.537-0.575,1.186-1.024,1.948-1.338c0.762-0.316,1.615-0.473,2.56-0.473c0.945,0,1.798,0.156,2.561,0.473
	c0.762,0.313,1.407,0.763,1.94,1.338C51.353,24.354,51.761,25.054,52.045,25.873z M50.126,28.64c0-1.541-0.316-2.741-0.947-3.601
	c-0.629-0.859-1.582-1.289-2.859-1.289c-0.646,0-1.208,0.11-1.686,0.331c-0.476,0.221-0.874,0.542-1.193,0.958
	c-0.32,0.415-0.558,0.93-0.716,1.537c-0.156,0.609-0.235,1.295-0.235,2.063c0,0.766,0.08,1.451,0.235,2.056
	c0.158,0.603,0.396,1.111,0.716,1.526c0.319,0.411,0.717,0.729,1.193,0.949c0.477,0.222,1.039,0.331,1.686,0.331
	c1.277,0,2.23-0.427,2.859-1.28C49.811,31.365,50.126,30.172,50.126,28.64z M61.372,21.938c-0.876,0-1.64,0.252-2.291,0.758
	c-0.651,0.509-1.197,1.213-1.64,2.114l-0.154-2.018c-0.035-0.23-0.098-0.39-0.192-0.487c-0.093-0.091-0.264-0.139-0.51-0.139h-1.302
	V35.1h2.272v-8.233c0.358-0.878,0.801-1.548,1.333-2.006c0.531-0.459,1.194-0.689,1.986-0.689c0.441,0,0.787,0.041,1.034,0.12
	c0.246,0.083,0.429,0.122,0.549,0.122c0.204,0,0.336-0.107,0.396-0.319l0.293-1.697c-0.248-0.145-0.515-0.258-0.805-0.339
	C62.054,21.976,61.729,21.938,61.372,21.938z M72.836,22.678h3.512v0.841c0,0.282-0.179,0.459-0.536,0.535l-1.47,0.206
	c0.29,0.553,0.435,1.172,0.435,1.852c0,0.629-0.121,1.202-0.363,1.717s-0.579,0.957-1.008,1.32
	c-0.432,0.367-0.941,0.648-1.533,0.844c-0.592,0.196-1.241,0.294-1.946,0.294c-0.604,0-1.175-0.072-1.712-0.217
	c-0.27,0.175-0.478,0.364-0.619,0.567c-0.14,0.2-0.21,0.401-0.21,0.594c0,0.316,0.124,0.556,0.371,0.718
	c0.247,0.164,0.573,0.281,0.984,0.352c0.407,0.072,0.872,0.105,1.391,0.105c0.519,0,1.05,0,1.59,0s1.07,0.047,1.589,0.143
	c0.519,0.094,0.983,0.249,1.392,0.465s0.736,0.511,0.983,0.892c0.247,0.378,0.37,0.87,0.37,1.474c0,0.562-0.138,1.103-0.415,1.628
	c-0.276,0.525-0.675,0.992-1.193,1.402c-0.519,0.409-1.154,0.735-1.902,0.983c-0.749,0.244-1.595,0.366-2.54,0.366
	s-1.772-0.094-2.484-0.28c-0.71-0.188-1.299-0.439-1.767-0.755c-0.469-0.314-0.82-0.677-1.055-1.091
	c-0.233-0.414-0.35-0.846-0.35-1.298c0-0.64,0.201-1.183,0.607-1.631c0.403-0.445,0.958-0.802,1.665-1.065
	c-0.366-0.171-0.658-0.399-0.875-0.681c-0.217-0.287-0.325-0.667-0.325-1.145c0-0.183,0.034-0.378,0.102-0.577
	c0.067-0.2,0.172-0.398,0.313-0.592c0.14-0.196,0.312-0.386,0.517-0.564c0.204-0.176,0.442-0.335,0.713-0.471
	c-0.638-0.356-1.138-0.832-1.498-1.422c-0.363-0.593-0.544-1.283-0.544-2.075c0-0.63,0.122-1.201,0.364-1.718
	c0.243-0.514,0.582-0.953,1.016-1.313c0.434-0.362,0.951-0.642,1.551-0.837c0.601-0.194,1.258-0.295,1.973-0.295
	c0.561,0,1.086,0.062,1.576,0.186C71.992,22.258,72.437,22.438,72.836,22.678z M66.792,34.851c-0.302,0.334-0.453,0.729-0.453,1.19
	c0,0.29,0.074,0.56,0.223,0.812c0.148,0.249,0.376,0.468,0.682,0.651c0.306,0.18,0.692,0.326,1.156,0.436
	c0.464,0.105,1.011,0.159,1.641,0.159c0.612,0,1.162-0.056,1.647-0.17c0.485-0.112,0.896-0.273,1.232-0.48
	c0.336-0.209,0.594-0.456,0.771-0.745c0.18-0.284,0.269-0.603,0.269-0.948c0-0.329-0.089-0.594-0.269-0.796
	c-0.178-0.2-0.421-0.353-0.727-0.462c-0.307-0.109-0.66-0.187-1.06-0.24c-0.401-0.051-0.822-0.078-1.264-0.078
	c-0.442,0-0.894,0-1.353,0c-0.46,0-0.897-0.057-1.315-0.171C67.487,34.238,67.094,34.521,66.792,34.851z M72.748,26.176
	c0-0.791-0.242-1.421-0.721-1.891c-0.481-0.466-1.181-0.701-2.101-0.701c-0.912,0-1.607,0.235-2.089,0.701
	c-0.48,0.47-0.72,1.1-0.72,1.891c0,0.384,0.06,0.734,0.185,1.053c0.124,0.317,0.304,0.594,0.542,0.822
	c0.238,0.229,0.533,0.41,0.882,0.537c0.348,0.128,0.749,0.191,1.201,0.191c0.458,0,0.866-0.063,1.219-0.191
	c0.353-0.127,0.648-0.308,0.887-0.537c0.239-0.229,0.417-0.505,0.537-0.822C72.688,26.91,72.748,26.56,72.748,26.176z M84.71,21.938
	c-0.877,0-1.642,0.252-2.292,0.758c-0.65,0.509-1.198,1.213-1.64,2.114l-0.153-2.018c-0.036-0.23-0.098-0.39-0.193-0.487
	c-0.092-0.091-0.263-0.139-0.51-0.139H78.62V35.1h2.272v-8.233c0.357-0.878,0.803-1.548,1.334-2.006
	c0.532-0.459,1.194-0.689,1.987-0.689c0.441,0,0.785,0.041,1.033,0.12c0.247,0.083,0.43,0.122,0.548,0.122
	c0.205,0,0.337-0.107,0.396-0.319l0.293-1.697c-0.247-0.145-0.515-0.258-0.804-0.339C85.391,21.976,85.066,21.938,84.71,21.938z
	 M97.629,24.834c0.197,0.605,0.295,1.27,0.295,1.994V35.1h-1.01c-0.222,0-0.4-0.034-0.535-0.103
	c-0.136-0.068-0.227-0.213-0.269-0.434l-0.256-1.199c-0.338,0.306-0.672,0.58-0.994,0.822c-0.324,0.241-0.665,0.447-1.022,0.612
	s-0.739,0.292-1.143,0.378c-0.405,0.085-0.853,0.127-1.347,0.127c-0.502,0-0.972-0.07-1.411-0.21
	c-0.439-0.142-0.819-0.354-1.142-0.636c-0.325-0.282-0.581-0.64-0.772-1.067c-0.192-0.434-0.287-0.943-0.287-1.533
	c0-0.512,0.139-1.006,0.42-1.479c0.281-0.476,0.734-0.894,1.36-1.264c0.626-0.367,1.447-0.668,2.458-0.901
	c1.013-0.236,2.251-0.355,3.714-0.355v-1.015c0-1.008-0.213-1.771-0.643-2.292c-0.43-0.517-1.067-0.778-1.909-0.778
	c-0.554,0-1.019,0.072-1.399,0.212c-0.378,0.14-0.707,0.298-0.982,0.474c-0.277,0.175-0.515,0.331-0.716,0.473
	c-0.2,0.141-0.398,0.209-0.595,0.209c-0.151,0-0.286-0.039-0.4-0.121c-0.116-0.08-0.207-0.18-0.275-0.302l-0.409-0.725
	c0.716-0.69,1.486-1.205,2.312-1.546c0.823-0.34,1.739-0.51,2.744-0.51c0.724,0,1.366,0.115,1.927,0.357
	c0.562,0.236,1.036,0.569,1.419,0.994C97.144,23.716,97.434,24.23,97.629,24.834z M95.688,29.303c-1.047,0-1.934,0.067-2.667,0.2
	c-0.733,0.132-1.329,0.307-1.788,0.519c-0.46,0.216-0.794,0.468-1.002,0.758c-0.208,0.291-0.312,0.616-0.312,0.977
	c0,0.341,0.055,0.638,0.167,0.886c0.109,0.248,0.259,0.453,0.446,0.61c0.188,0.16,0.409,0.271,0.664,0.347
	c0.255,0.072,0.532,0.108,0.831,0.108c0.399,0,0.766-0.04,1.098-0.118c0.332-0.084,0.645-0.198,0.938-0.347
	c0.293-0.147,0.575-0.332,0.843-0.544c0.27-0.212,0.53-0.455,0.784-0.728V29.303z M112.425,25.703
	c0.231,0.825,0.345,1.773,0.345,2.847c0,0.955-0.127,1.841-0.383,2.66c-0.256,0.823-0.621,1.534-1.097,2.133
	c-0.479,0.602-1.062,1.074-1.757,1.417c-0.694,0.346-1.475,0.52-2.343,0.52c-0.8,0-1.483-0.135-2.049-0.397
	c-0.566-0.262-1.065-0.64-1.5-1.124v5.72h-2.272V22.166h1.354c0.323,0,0.528,0.159,0.612,0.472l0.191,1.533
	c0.552-0.673,1.186-1.214,1.896-1.621c0.711-0.41,1.529-0.612,2.456-0.612c0.742,0,1.413,0.142,2.019,0.427
	c0.604,0.285,1.119,0.706,1.545,1.263C111.869,24.187,112.196,24.877,112.425,25.703z M110.421,28.55
	c0-0.843-0.074-1.567-0.224-2.171c-0.148-0.603-0.362-1.099-0.644-1.487c-0.281-0.388-0.625-0.669-1.034-0.848
	c-0.41-0.181-0.872-0.271-1.392-0.271c-0.74,0-1.39,0.173-1.947,0.512c-0.558,0.341-1.071,0.822-1.539,1.441v6.258
	c0.418,0.562,0.875,0.956,1.373,1.187c0.498,0.231,1.054,0.345,1.667,0.345c1.199,0,2.123-0.43,2.771-1.288
	C110.097,31.367,110.421,30.14,110.421,28.55z M125.397,28.64h-8.604c0.016,0.816,0.127,1.527,0.332,2.131
	c0.205,0.604,0.485,1.109,0.842,1.514c0.357,0.403,0.783,0.707,1.277,0.905c0.493,0.201,1.048,0.302,1.66,0.302
	c0.57,0,1.062-0.067,1.474-0.199c0.414-0.131,0.77-0.273,1.066-0.429c0.298-0.151,0.547-0.295,0.746-0.427
	c0.2-0.132,0.372-0.197,0.518-0.197c0.188,0,0.333,0.072,0.434,0.217l0.639,0.831c-0.281,0.34-0.617,0.637-1.009,0.887
	c-0.391,0.252-0.811,0.457-1.258,0.619c-0.447,0.161-0.907,0.282-1.384,0.364c-0.478,0.08-0.949,0.122-1.417,0.122
	c-0.894,0-1.718-0.153-2.472-0.455c-0.752-0.302-1.403-0.746-1.953-1.329c-0.549-0.582-0.977-1.303-1.283-2.161
	c-0.307-0.861-0.46-1.847-0.46-2.962c0-0.903,0.138-1.745,0.416-2.528c0.277-0.783,0.672-1.462,1.192-2.036
	c0.52-0.576,1.154-1.026,1.902-1.355c0.749-0.326,1.592-0.489,2.528-0.489c0.773,0,1.488,0.129,2.146,0.39
	c0.654,0.258,1.22,0.633,1.698,1.121c0.476,0.492,0.847,1.095,1.116,1.815c0.268,0.717,0.403,1.539,0.403,2.457
	c0,0.359-0.039,0.595-0.116,0.715C125.754,28.58,125.609,28.64,125.397,28.64z M123.903,27.223c0-0.527-0.071-1.012-0.216-1.447
	c-0.146-0.439-0.358-0.82-0.64-1.14c-0.281-0.319-0.624-0.563-1.027-0.739c-0.404-0.176-0.866-0.263-1.385-0.263
	c-1.098,0-1.963,0.315-2.591,0.952c-0.63,0.634-1.021,1.513-1.174,2.637H123.903z"/>
</svg>
